<?xml version="1.0" standalone="no"?>
<!DOCTYPE svg PUBLIC "-//W3C//DTD SVG 20010904//EN"
 "http://www.w3.org/TR/2001/REC-SVG-20010904/DTD/svg10.dtd">
<svg version="1.0" xmlns="http://www.w3.org/2000/svg"
 width="700.000000pt" height="700.000000pt" viewBox="0 0 700.000000 700.000000"
 preserveAspectRatio="xMidYMid meet">
<metadata>
Created by potrace 1.14, written by Peter Selinger 2001-2017
</metadata>
<g transform="translate(0.000000,700.000000) scale(0.100000,-0.100000)"
fill="#000000" stroke="none">
<path d="M3278 6995 c-1 -1 -41 -6 -88 -9 -47 -4 -96 -8 -110 -10 -14 -2 -46
-7 -71 -10 -25 -4 -57 -9 -70 -11 -13 -2 -41 -6 -61 -9 -44 -7 -94 -18 -236
-52 -367 -88 -826 -296 -1124 -509 -31 -22 -66 -47 -78 -55 -129 -87 -375
-307 -525 -471 -241 -262 -473 -614 -605 -919 -22 -52 -45 -104 -50 -115 -39
-81 -129 -362 -168 -525 -30 -123 -58 -282 -68 -380 -3 -36 -10 -96 -14 -135
-8 -76 -5 -548 4 -605 6 -41 17 -138 18 -160 0 -8 9 -64 20 -125 94 -535 322
-1060 649 -1495 432 -574 1022 -998 1704 -1225 74 -24 145 -47 157 -49 13 -3
38 -9 57 -15 31 -9 202 -47 261 -57 14 -2 36 -6 50 -9 14 -3 48 -7 75 -11 28
-3 61 -7 75 -10 109 -19 560 -26 720 -11 122 11 202 21 295 38 33 5 74 12 90
15 67 12 307 75 405 107 682 225 1280 655 1714 1232 273 362 481 801 591 1245
33 133 49 212 59 280 3 19 10 67 15 105 34 226 36 650 7 880 -3 22 -8 58 -11
80 -65 527 -313 1132 -650 1584 -257 346 -609 674 -941 878 -121 75 -180 108
-304 170 -316 160 -683 279 -1010 329 -25 3 -52 8 -60 9 -8 2 -44 6 -80 10
-36 4 -81 10 -100 12 -42 5 -537 13 -542 8z m481 -169 c84 -6 155 -14 201 -21
324 -51 556 -115 824 -227 466 -194 828 -452 1207 -858 112 -120 289 -365 394
-544 209 -357 378 -848 420 -1221 3 -22 7 -56 10 -75 24 -171 24 -614 0 -750
-2 -14 -7 -51 -10 -84 -3 -32 -13 -95 -21 -140 -9 -44 -18 -92 -21 -106 -12
-67 -69 -268 -105 -375 -114 -334 -277 -641 -490 -926 -98 -130 -125 -162
-248 -293 -274 -291 -577 -514 -935 -691 -340 -167 -632 -260 -975 -311 -58
-8 -116 -17 -130 -20 -130 -22 -597 -22 -760 1 -14 2 -43 6 -65 8 -40 6 -142
22 -200 32 -119 22 -455 116 -480 135 -5 4 -23 10 -40 14 -16 4 -43 13 -60 21
-16 7 -55 23 -85 36 -177 75 -406 201 -570 313 -236 160 -520 418 -679 616
-20 25 -39 47 -42 50 -3 3 -42 53 -85 112 -242 328 -421 698 -538 1118 -19 69
-65 278 -71 328 -3 20 -7 55 -10 77 -12 86 -15 114 -22 215 -12 181 -5 521 12
620 2 14 7 48 10 75 5 46 18 123 30 185 3 14 8 38 11 55 22 122 124 453 165
539 10 22 19 44 19 49 0 17 139 298 196 394 142 243 301 450 505 657 205 208
387 355 611 495 98 62 372 205 468 245 181 75 411 149 565 180 11 3 53 12 93
20 40 9 91 18 115 21 23 3 60 8 82 11 59 10 89 13 210 20 61 3 111 7 112 8 5
4 306 -2 382 -8z"/>
<path d="M3299 6606 c-2 -2 -43 -7 -91 -11 -49 -3 -96 -8 -105 -9 -10 -2 -38
-7 -63 -10 -25 -3 -54 -8 -65 -10 -11 -2 -36 -6 -55 -10 -493 -89 -991 -323
-1395 -654 -137 -113 -313 -287 -410 -407 -31 -38 -64 -79 -73 -90 -19 -23
-72 -95 -126 -173 -51 -73 -175 -290 -219 -383 -105 -222 -190 -470 -238 -694
-7 -33 -14 -64 -15 -70 -1 -5 -5 -28 -8 -50 -4 -23 -8 -50 -10 -60 -5 -30 -15
-102 -23 -180 -10 -93 -10 -490 0 -585 33 -320 101 -597 212 -871 315 -775
905 -1374 1672 -1702 294 -125 594 -201 932 -234 100 -10 463 -10 571 0 503
47 994 221 1427 504 69 45 55 35 178 129 611 468 1025 1147 1164 1909 39 210
46 297 46 560 0 215 -7 322 -31 465 -3 19 -8 48 -10 64 -2 15 -6 35 -8 45 -3
9 -8 32 -11 51 -31 187 -134 491 -241 716 -79 164 -257 454 -341 554 -11 14
-47 57 -79 95 -252 304 -567 559 -934 757 -221 120 -571 245 -815 293 -101 20
-191 35 -237 40 -29 3 -69 8 -88 11 -42 6 -505 15 -511 10z m-1324 -1049 c17
-3 56 -8 88 -12 48 -5 329 -53 402 -68 11 -3 40 -8 65 -12 25 -4 54 -9 65 -12
11 -2 43 -8 70 -13 28 -5 64 -12 80 -15 131 -25 555 -94 615 -100 14 -2 45 -6
70 -9 71 -10 110 -14 185 -21 39 -3 79 -8 90 -10 11 -2 65 -7 120 -10 55 -4
116 -9 135 -11 19 -3 175 -7 345 -11 171 -3 311 -7 313 -8 4 -4 -483 -162
-598 -195 -41 -12 -86 -25 -100 -30 -34 -12 -336 -93 -440 -118 -73 -18 -249
-60 -330 -78 -14 -3 -35 -8 -47 -10 -13 -2 -35 -6 -50 -9 -370 -72 -608 -99
-858 -100 -271 0 -413 24 -555 95 -82 42 -145 102 -179 173 -38 78 -49 143
-46 265 6 242 123 333 414 327 64 -2 130 -5 146 -8z m3674 -578 c176 -57 310
-200 350 -375 42 -177 -7 -435 -105 -564 -138 -181 -392 -261 -599 -190 -204
70 -402 321 -418 530 -6 71 18 154 65 223 53 79 206 231 281 281 154 101 304
134 426 95z m-1873 -575 c1 -64 12 -157 26 -219 13 -59 47 -184 55 -205 4 -8
7 -17 7 -20 7 -28 50 -129 102 -235 98 -204 226 -389 458 -661 16 -19 27 -36
25 -38 -18 -18 -296 -27 -394 -13 -204 30 -389 122 -543 271 -80 77 -117 126
-161 215 -122 244 -37 560 221 813 72 71 176 149 193 144 5 -1 10 -25 11 -52z
m-995 -273 c-48 -225 -22 -566 61 -776 163 -416 464 -728 931 -966 65 -33 117
-62 115 -64 -2 -2 -15 -6 -28 -8 -14 -3 -44 -10 -66 -16 -129 -35 -414 -54
-554 -37 -251 30 -470 116 -650 255 -141 108 -309 323 -365 465 -58 149 -70
323 -30 471 24 90 105 250 174 342 65 88 195 223 276 288 28 22 52 43 55 46
11 13 84 58 88 54 2 -2 -1 -26 -7 -54z m2463 -806 c3 -22 8 -58 11 -80 7 -57
25 -186 30 -215 2 -14 6 -43 9 -65 4 -22 8 -51 11 -65 9 -49 15 -86 25 -150 5
-36 11 -74 14 -85 8 -42 16 -92 21 -130 3 -22 10 -62 15 -90 5 -27 12 -72 16
-100 4 -27 8 -52 9 -55 0 -3 5 -34 9 -70 4 -36 10 -74 12 -85 11 -48 5 -206
-10 -267 -82 -352 -337 -696 -582 -788 -166 -61 -339 29 -382 200 -11 42 -10
240 1 302 11 58 20 97 44 183 14 50 26 97 28 105 14 58 118 330 183 475 80
181 246 522 311 640 93 168 216 384 217 382 1 -1 5 -20 8 -42z"/>
</g>
</svg>
