<svg width="75" height="75" viewBox="0 0 75 75" fill="none" xmlns="http://www.w3.org/2000/svg">
<path d="M4.17854 37.5C4.17854 19.0971 19.0971 4.17852 37.5 4.17852C55.903 4.17852 70.8215 19.0971 70.8215 37.5C70.8215 55.9029 55.903 70.8215 37.5 70.8215C19.0971 70.8215 4.17854 55.9029 4.17854 37.5ZM15.2079 20.3267C16.4316 30.8597 49.7054 18.7417 49.7054 18.7417C40.5915 18.9855 32.9877 17.5547 27.2529 16.4756C18.8702 14.8982 14.4813 14.0724 15.2079 20.3267ZM60.8555 21.7633C56.6768 20.1462 52.8371 25.8155 52.8371 25.8155C52.8371 25.8155 50.7745 28.392 54.299 32.1365C57.8234 35.8809 62.6148 33.4764 63.7703 30.6905C64.9257 27.9046 65.0342 23.3804 60.8555 21.7633ZM40.4484 27.133C37.6667 28.5296 32.5723 34.338 37.1046 39.3185C41.6367 44.2991 47.7819 42.5489 47.7819 42.5489C39.7639 34.0942 40.4484 27.133 40.4484 27.133ZM41.7382 50.053C25.9665 42.8709 29.9729 30.0207 29.9729 30.0207C29.9729 30.0207 18.9643 36.8829 25.1087 45.2737C31.2533 53.6645 41.7382 50.053 41.7382 50.053ZM58.186 52.5811C57.5444 47.4153 56.4925 42.661 56.1382 38.8335C56.1382 38.8335 44.57 58.1086 48.2893 62.5105C52.0086 66.9126 58.8276 57.747 58.186 52.5811ZM74.9932 38.2388L74.9842 38.6135L74.9717 38.988L74.9557 39.3623L74.9358 39.7367L74.9124 40.1108L74.8852 40.4847L74.8542 40.8584L74.8197 41.2317L74.7814 41.6047L74.7391 41.9774L74.6935 42.3495L74.6439 42.7214L74.5905 43.0927L74.5333 43.4634L74.4724 43.8335L74.4077 44.203L74.3395 44.572L74.2672 44.9401L74.1912 45.3076L74.1116 45.6741L74.0281 46.0401L73.941 46.405L73.8501 46.769L73.7556 47.132L73.6572 47.4941L73.5554 47.8551L73.4496 48.2151L73.3405 48.5739L73.2276 48.9317L73.1111 49.2881L72.991 49.6435L72.8674 49.9976L72.7404 50.3504L72.6098 50.7019L72.4756 51.0519L72.3381 51.4008L72.1972 51.7481L72.0529 52.094L71.968 52.2932L71.8191 52.6352L71.6663 52.9773L71.51 53.318L71.3504 53.6572L71.1875 53.9949L71.0212 54.3309L70.8513 54.6653L70.6783 54.9979L70.5018 55.3289L70.3222 55.6581L70.1391 55.9854L69.9527 56.311L69.7632 56.6345L69.5701 56.9564L69.3741 57.2761L69.1746 57.5938L68.9718 57.9096L68.766 58.2231L68.557 58.5347L68.3447 58.844L68.1294 59.1511L67.9109 59.4561L67.6894 59.7589L67.4648 60.0594L67.2373 60.3574L67.0067 60.6533L66.7732 60.9468L66.5366 61.2379L66.2973 61.5267L66.0552 61.8128L65.8101 62.0966L65.5624 62.378L65.3118 62.6569L65.0586 62.9333L64.8028 63.2071L64.5444 63.4784L64.2832 63.7473L64.0197 64.0134L63.8661 64.1662L63.5998 64.4272L63.3295 64.6868L63.0568 64.944L62.7816 65.1984L62.5039 65.45L62.2237 65.6991L61.9409 65.9452L61.6557 66.1887L61.3682 66.4294L61.0783 66.6671L60.7859 66.9019L60.4911 67.1339L60.194 67.3627L59.8945 67.5887L59.5929 67.8116L59.2888 68.0315L58.9828 68.2482L58.6744 68.4617L58.3639 68.6723L58.0511 68.8796L57.7364 69.0836L57.4196 69.2847L57.1007 69.4823L56.7798 69.6766L56.4572 69.8679L56.1325 70.0557L55.8058 70.2402L55.4774 70.4214L55.1472 70.5994L54.8154 70.774L54.4818 70.9451L54.1464 71.113L53.8094 71.2775L53.4709 71.4386L53.1309 71.5966L52.7894 71.751L52.4463 71.902L52.102 72.0497L51.7616 72.1918L51.4146 72.3327L51.0659 72.4704L50.7158 72.6045L50.3644 72.7353L50.0117 72.8625L49.6577 72.9862L49.3025 73.1064L48.946 73.2231L48.5882 73.336L48.2294 73.4454L47.8696 73.5511L47.5087 73.6533L47.1467 73.7518L46.7835 73.8464L46.4196 73.9375L46.0548 74.0246L45.6891 74.1084L45.3224 74.1882L44.955 74.2642L44.5869 74.3366L44.218 74.4051L43.8485 74.47L43.4784 74.5309L43.1076 74.5882L42.7364 74.6416L42.3645 74.6914L41.9922 74.7375L41.6195 74.7797L41.2466 74.818L40.8731 74.853L40.4994 74.8839L40.1256 74.9113L39.7515 74.9349L39.377 74.9548L39.0027 74.971L38.628 74.9837L38.2536 74.9927L37.8789 74.9982L37.5042 75L37.1357 74.9982L36.761 74.9931L36.3866 74.9841L36.0121 74.9716L35.6376 74.9555L35.2633 74.9357L34.8893 74.9123L34.5154 74.8851L34.1417 74.8541L33.7684 74.8196L33.3953 74.7813L33.0227 74.7392L32.6504 74.6934L32.2786 74.6438L31.9074 74.5904L31.5366 74.5332L31.1664 74.4723L30.7969 74.4078L30.428 74.3394L30.0599 74.2671L29.6924 74.1913L29.3258 74.1115L28.96 74.0282L28.5951 73.9411L28.2311 73.8502L27.868 73.7555L27.506 73.6573L27.1449 73.5553L26.7849 73.4497L26.4261 73.3404L26.0684 73.2276L25.7118 73.1112L25.3565 72.9911L25.0024 72.8675L24.6496 72.7405L24.2982 72.6099L23.948 72.4757L23.5993 72.3382L23.2519 72.1973L22.906 72.053L22.7067 71.9681L22.3647 71.8192L22.0226 71.6664L21.6819 71.5101L21.3427 71.3505L21.005 71.1876L20.6691 71.0211L20.3347 70.8514L20.002 70.6784L19.671 70.5019L19.3419 70.3223L19.0145 70.1392L18.689 69.9528L18.3653 69.7631L18.0436 69.5702L17.7239 69.3739L17.4062 69.1745L17.0904 68.9719L16.7769 68.7661L16.4654 68.5569L16.156 68.3448L15.8488 68.1295L15.5438 67.911L15.2411 67.6893L14.9406 67.4649L14.6425 67.2373L14.3466 67.0067L14.0532 66.7731L13.7621 66.5367L13.4734 66.2974L13.1871 66.0551L12.9033 65.81L12.6219 65.5623L12.343 65.3119L12.0667 65.0587L11.7928 64.8027L11.5215 64.5441L11.2527 64.2831L10.9865 64.0194L10.8337 63.866L10.5728 63.5997L10.3132 63.3294L10.0561 63.0567L9.80174 62.7815L9.55005 62.5038L9.30103 62.2236L9.05479 61.9408L8.81135 61.6557L8.57075 61.3681L8.33301 61.0782L8.09816 60.7858L7.86626 60.491L7.63733 60.1939L7.41139 59.8944L7.1885 59.5928L6.96865 59.2887L6.75192 58.9827L6.5383 58.6743L6.3278 58.3638L6.1205 58.051L5.91638 57.7363L5.71546 57.4195L5.51779 57.1006L5.32339 56.7797L5.13225 56.4571L4.94437 56.1324L4.75984 55.8057L4.57859 55.4773L4.40068 55.1473L4.22611 54.8153L4.05488 54.4817L3.88699 54.1463L3.72248 53.8093L3.56132 53.4708L3.40353 53.1309L3.24912 52.7893L3.09803 52.4462L2.95035 52.1019L2.80831 51.7615L2.66731 51.4145L2.52967 51.0658L2.39548 50.7157L2.26476 50.3643L2.13752 50.0116L2.01381 49.6576L1.89363 49.3024L1.77701 48.9459L1.66401 48.5881L1.55461 48.2293L1.44885 47.8696L1.34677 47.5086L1.24834 47.1466L1.1536 46.7834L1.06259 46.4195L0.975276 46.0547L0.891705 45.689L0.811863 45.3223L0.735782 44.9549L0.663468 44.5868L0.594903 44.2179L0.530085 43.8484L0.469061 43.4783L0.411784 43.1076L0.358281 42.7363L0.308552 42.3644L0.262571 41.9921L0.220344 41.6194L0.181865 41.2465L0.14709 40.873L0.116075 40.4993L0.0887516 40.1255L0.0651182 39.7514L0.0451689 39.3769L0.0288973 39.0026L0.0162588 38.628L0.00724672 38.2535L0.00182287 37.8788L0 37.5041L0.00170135 37.1356L0.0069589 36.7611L0.0158366 36.3865L0.0283153 36.012L0.0444717 35.6375L0.0642547 35.2632L0.0877538 34.8892L0.114924 34.5153L0.145804 34.1416L0.180407 33.7683L0.218732 33.3953L0.260818 33.0226L0.306639 32.6504L0.356228 32.2786L0.409571 31.9073L0.466688 31.5366L0.527552 31.1664L0.592204 30.7969L0.660609 30.428L0.732789 30.0598L0.80871 29.6924L0.888411 29.3258L0.971815 28.96L1.05897 28.595L1.14986 28.231L1.24445 27.868L1.34272 27.5059L1.44468 27.1449L1.55028 26.7849L1.65954 26.426L1.77241 26.0683L1.88888 25.7118L2.00892 25.3565L2.13251 25.0024L2.25962 24.6496L2.39022 24.2981L2.5243 23.948L2.6618 23.5992L2.80272 23.2519L2.94699 22.906L3.03191 22.7067L3.18072 22.3647L3.33363 22.0225L3.48989 21.6818L3.64952 21.3427L3.8125 21.005L3.97887 20.669L4.14856 20.3346L4.32163 20.002L4.49803 19.671L4.67776 19.3418L4.86081 19.0145L5.04717 18.6889L5.23683 18.3653L5.42976 18.0436L5.62597 17.7239L5.82541 17.4061L6.02809 17.0904L6.23398 16.7768L6.44303 16.4653L6.65525 16.156L6.87061 15.8488L7.08906 15.5438L7.31059 15.2411L7.53517 14.9406L7.76275 14.6425L7.99335 14.3466L8.22688 14.0531L8.46334 13.762L8.70269 13.4733L8.94487 13.1871L9.18988 12.9033L9.43767 12.6219L9.68819 12.343L9.94141 12.0666L10.1973 11.7928L10.4558 11.5215L10.7169 11.2527L10.9805 10.9865L11.134 10.8338L11.4003 10.5728L11.6705 10.3132L11.9432 10.0562L12.2184 9.80176L12.4961 9.55004L12.7763 9.30105L13.059 9.05479L13.3442 8.81135L13.6318 8.57075L13.9218 8.33301L14.2141 8.09817L14.5089 7.86626L14.806 7.63733L15.1054 7.41139L15.4071 7.1885L15.7111 6.96865L16.0173 6.75191L16.3256 6.53828L16.6362 6.3278L16.9488 6.12049L17.2636 5.91636L17.5804 5.71545L17.8993 5.51778L18.2201 5.32338L18.5429 5.13223L18.8676 4.94436L19.1941 4.7598L19.5225 4.57858L19.8527 4.40067L20.1846 4.22609L20.5183 4.05484L20.8536 3.88697L21.1905 3.72246L21.529 3.5613L21.8691 3.40349L22.2106 3.24908L22.5536 3.09802L22.8981 2.95031L23.2384 2.80822L23.5856 2.66722L23.9343 2.52959L24.2843 2.3954L24.6357 2.26469L24.9884 2.13744L25.3424 2.01373L25.6977 1.89357L26.0541 1.77696L26.4118 1.66394L26.7706 1.55456L27.1305 1.44881L27.4915 1.34673L27.8535 1.2483L28.2165 1.15358L28.5804 1.06255L28.9453 0.975231L29.3111 0.89166L29.6777 0.811818L30.0451 0.735757L30.4132 0.663424L30.7821 0.594858L31.1516 0.530066L31.5218 0.469041L31.8925 0.411771L32.2638 0.358262L32.6356 0.308533L33.0079 0.262551L33.3805 0.220325L33.7535 0.181846L34.127 0.147071L34.5007 0.116056L34.8745 0.0887324L35.2486 0.065099L35.6231 0.0451497L35.9974 0.0288782L36.372 0.0162396L36.7465 0.00722753L37.1212 0.00180369L37.4959 0L37.8644 0.00168856L38.2388 0.00694611L38.6133 0.0158174L38.988 0.0283025L39.3623 0.0444589L39.7365 0.0642419L40.1106 0.0877154L40.4847 0.114905L40.8582 0.145779L41.2317 0.180369L41.6048 0.218713L41.9772 0.26078L42.3495 0.30662L42.7214 0.356196L43.0927 0.409539L43.4634 0.466649L43.8335 0.527533L44.203 0.592172L44.572 0.660597L44.9401 0.732776L45.3076 0.808697L45.6742 0.888373L46.0399 0.971803L46.4048 1.05896L46.769 1.14983L47.132 1.24441L47.4941 1.34268L47.8551 1.44465L48.2151 1.55026L48.5739 1.65951L48.9317 1.77238L49.2881 1.88886L49.6435 2.0089L49.9976 2.13249L50.3504 2.2596L50.7019 2.3902L51.0519 2.52427L51.4006 2.66177L51.7481 2.80269L52.094 2.94697L52.2932 3.03191L52.6354 3.18074L52.9775 3.33363L53.3182 3.48989L53.6574 3.64952L53.9949 3.8125L54.3309 3.97887L54.6653 4.14856L54.9981 4.32162L55.3289 4.49803L55.6582 4.67776L55.9856 4.8608L56.3111 5.04717L56.6347 5.23683L56.9564 5.42976L57.2761 5.62596L57.5938 5.8254L57.9096 6.02808L58.2231 6.23396L58.5347 6.44303L58.8441 6.65525L59.1513 6.87058L59.4563 7.08903L59.7589 7.31056L60.0594 7.53515L60.3576 7.76275L60.6533 7.99333L60.9468 8.22686L61.238 8.46332L61.5267 8.70267L61.8129 8.94485L62.0969 9.18986L62.3781 9.43765L62.6571 9.68817L62.9333 9.94139L63.2072 10.1973L63.4785 10.4558L63.7473 10.7169L64.0135 10.9805L64.1663 11.1339L64.427 11.4003L64.6868 11.6704L64.9438 11.9431L65.1982 12.2183L65.4498 12.496L65.6989 12.7763L65.9452 13.059L66.1885 13.3441L66.4292 13.6317L66.6669 13.9217L66.9017 14.2141L67.1337 14.5089L67.3625 14.806L67.5885 15.1054L67.8114 15.4071L68.0313 15.711L68.248 16.0172L68.4615 16.3256L68.6721 16.6361L68.8794 16.9488L69.0834 17.2636L69.2845 17.5804L69.4821 17.8993L69.6764 18.2201L69.8677 18.5428L70.0555 18.8675L70.24 19.1941L70.4212 19.5225L70.5992 19.8527L70.7739 20.1846L70.9449 20.5182L71.1128 20.8536L71.2773 21.1905L71.4385 21.529L71.5964 21.8691L71.7508 22.2106L71.9018 22.5536L72.0495 22.8981L72.1916 23.2384L72.3327 23.5856L72.4702 23.9342L72.6043 24.2843L72.7351 24.6357L72.8623 24.9884L72.9862 25.3424L73.1062 25.6976L73.2229 26.0541L73.3358 26.4117L73.4454 26.7705L73.5511 27.1304L73.6531 27.4914L73.7516 27.8534L73.8464 28.2164L73.9373 28.5804L74.0246 28.9452L74.1082 29.311L74.1882 29.6776L74.2642 30.045L74.3364 30.4132L74.4051 30.782L74.47 31.1515L74.5309 31.5217L74.5882 31.8924L74.6416 32.2637L74.6914 32.6355L74.7375 33.0078L74.7795 33.3804L74.818 33.7535L74.853 34.1269L74.8839 34.5006L74.9113 34.8745L74.9349 35.2485L74.9548 35.623L74.971 35.9973L74.9837 36.372L74.9927 36.7464L74.9982 37.1211L75 37.4958V37.5041L74.9982 37.8643L74.9932 38.2388ZM73.2391 37.1464L73.2339 36.7888L73.2254 36.4312L73.2135 36.0737L73.198 35.7163L73.1791 35.3593L73.1565 35.0025L73.1307 34.6461L73.1011 34.2897L73.068 33.9339L73.0315 33.5784L72.9914 33.2233L72.9475 32.8687L72.9003 32.5145L72.8495 32.1609L72.7949 31.8078L72.737 31.4553L72.6755 31.1034L72.6102 30.7522L72.5413 30.4017L72.4691 30.0518L72.3931 29.7028L72.3137 29.3545L72.2305 29.0071L72.144 28.6605L72.0539 28.3148L71.9603 27.9701L71.863 27.6263L71.7624 27.2835L71.6584 26.9417L71.5507 26.6009L71.4397 26.2613L71.3252 25.9227L71.2075 25.5853L71.0863 25.249L70.9617 24.9139L70.8337 24.58L70.7025 24.2474L70.5679 23.916L70.4326 23.5913L70.2917 23.2626L70.1476 22.9353L70.0004 22.6094L69.8499 22.2851L69.6963 21.9623L69.5396 21.641L69.3796 21.3214L69.2167 21.0034L69.0504 20.6871L68.8809 20.3725L68.7083 20.0596L68.5326 19.7485L68.3538 19.4392L68.1718 19.1317L67.9867 18.8261L67.7986 18.5224L67.6073 18.2207L67.413 17.9209L67.2157 17.6231L67.0153 17.3273L66.8119 17.0336L66.6055 16.7419L66.3963 16.4524L66.184 16.165L65.9689 15.8797L65.7508 15.5966L65.5299 15.3157L65.3062 15.037L65.0796 14.7605L64.8504 14.4863L64.6184 14.2144L64.3836 13.9448L64.1461 13.6774L63.9062 13.4124L63.6635 13.1497L63.4182 12.8894L63.1703 12.6315L62.9187 12.3746L62.7756 12.2305L62.5214 11.9787L62.2648 11.7295L62.006 11.4827L61.7447 11.2385L61.4811 10.9969L61.2152 10.7579L60.9471 10.5216L60.6764 10.2879L60.4037 10.057L60.1285 9.82882L59.8513 9.60342L59.5716 9.38086L59.2899 9.16112L59.0059 8.94425L58.7199 8.73028L58.4316 8.51921L58.1412 8.31109L57.8487 8.10593L57.5542 7.90377L57.2575 7.70463L56.9591 7.50851L56.6584 7.31543L56.3558 7.12541L56.0514 6.93848L55.7449 6.75465L55.4368 6.57393L55.1268 6.39632L54.815 6.22186L54.5013 6.05051L54.1859 5.88236L53.869 5.71734L53.5503 5.55551L53.23 5.39682L52.9081 5.24132L52.5846 5.08902L52.2596 4.93985L51.9331 4.7939L51.6035 4.65039L51.4166 4.57068L51.0865 4.43293L50.7553 4.29844L50.4227 4.16722L50.0889 4.03931L49.754 3.91474L49.4176 3.7935L49.0802 3.67565L48.7417 3.56118L48.4021 3.45015L48.0614 3.34255L47.7196 3.23841L47.3767 3.13773L47.033 3.04057L46.6883 2.9469L46.3426 2.85675L45.9961 2.77015L45.6486 2.68708L45.3004 2.60756L44.9513 2.53161L44.6016 2.45924L44.251 2.39041L43.8997 2.32519L43.5478 2.26355L43.1954 2.20549L42.8424 2.15101L42.4887 2.1001L42.1345 2.05278L41.7799 2.00902L41.4246 1.96886L41.0692 1.93222L40.7132 1.89916L40.357 1.86964L40.0004 1.84364L39.6435 1.82115L39.2865 1.80218L38.9291 1.7867L38.5717 1.77469L38.2139 1.76613L37.8561 1.76104L37.5043 1.75935L37.1465 1.76099L36.7888 1.76607L36.4312 1.77461L36.0738 1.78658L35.7164 1.80204L35.3594 1.82099L35.0026 1.84342L34.646 1.86939L34.2898 1.8989L33.9339 1.93194L33.5785 1.96851L33.2234 2.00866L32.8688 2.05238L32.5146 2.09967L32.1609 2.15056L31.8079 2.20499L31.4554 2.26301L31.1035 2.32463L30.7522 2.38982L30.4017 2.4586L30.0519 2.53096L29.7028 2.60687L29.3546 2.68635L29.0072 2.7694L28.6606 2.85596L28.3149 2.94608L27.9701 3.03973L27.6263 3.13686L27.2835 3.2375L26.9417 3.34163L26.601 3.4492L26.2613 3.56022L25.9227 3.67466L25.5853 3.79249L25.249 3.91372L24.914 4.03829L24.5801 4.16617L24.2475 4.29738L23.9161 4.43189L23.5913 4.56735L23.2626 4.70823L22.9353 4.85229L22.6095 4.99952L22.2851 5.14992L21.9623 5.30351L21.6411 5.46029L21.3214 5.62021L21.0034 5.78333L20.6871 5.94958L20.3725 6.11902L20.0596 6.29159L19.7485 6.46732L19.4392 6.64619L19.1317 6.82815L18.8262 7.01322L18.5225 7.20139L18.2207 7.39263L17.921 7.58694L17.6232 7.7843L17.3274 7.98465L17.0337 8.18802L16.742 8.39437L16.4525 8.60369L16.165 8.81594L15.8798 9.0311L15.5967 9.24914L15.3158 9.47003L15.0371 9.69375L14.7606 9.92028L14.4864 10.1496L14.2145 10.3816L13.9449 10.6164L13.6775 10.8538L13.4125 11.0939L13.1499 11.3366L12.8895 11.5818L12.6316 11.8297L12.3747 12.0813L12.2306 12.2246L11.9788 12.4787L11.7295 12.7352L11.4827 12.9941L11.2385 13.2554L10.9969 13.5189L10.7579 13.7849L10.5216 14.0531L10.2879 14.3236L10.057 14.5964L9.82886 14.8715L9.60347 15.1488L9.38088 15.4284L9.16116 15.7102L8.94429 15.9941L8.7303 16.2803L8.51926 16.5685L8.31113 16.8589L8.10599 17.1514L7.90383 17.446L7.70467 17.7426L7.50854 18.0411L7.31547 18.3417L7.12545 18.6443L6.93851 18.9487L6.75469 19.2551L6.57396 19.5633L6.39635 19.8733L6.22189 20.1852L6.05055 20.4988L5.88239 20.8141L5.71738 21.1311L5.55554 21.4498L5.39686 21.7702L5.24136 22.0921L5.08903 22.4155L4.9399 22.7405L4.79394 23.067L4.65044 23.3966L4.57074 23.5835L4.433 23.9135L4.29851 24.2448L4.16729 24.5774L4.03939 24.9112L3.9148 25.2462L3.79357 25.5824L3.67571 25.9198L3.56126 26.2583L3.45021 26.598L3.34262 26.9387L3.23847 27.2805L3.13782 27.6232L3.04064 27.967L2.94697 28.3118L2.85683 28.6574L2.77021 29.004L2.68716 29.3514L2.60764 29.6997L2.5317 30.0487L2.4593 30.3985L2.3905 30.749L2.32526 31.1003L2.26361 31.4522L2.20556 31.8047L2.15107 32.1578L2.10016 32.5114L2.05284 32.8656L2.00909 33.2203L1.96891 33.5754L1.93227 33.9309L1.89921 34.2869L1.86969 34.6431L1.84369 34.9998L1.8212 35.3566L1.80223 35.7136L1.78676 36.071L1.77474 36.4284L1.76619 36.786L1.76109 37.1438L1.75938 37.4959L1.76105 37.8537L1.76613 38.2113L1.77467 38.5689L1.78663 38.9263L1.80209 39.2837L1.82104 39.6407L1.84348 39.9975L1.86944 40.3541L1.89895 40.7104L1.932 41.0662L1.96857 41.4216L2.00874 41.7768L2.05245 42.1314L2.09975 42.4855L2.15061 42.8391L2.20506 43.1924L2.26309 43.5448L2.32471 43.8967L2.3899 44.2479L2.45866 44.5984L2.53102 44.9482L2.60694 45.2973L2.68642 45.6456L2.76946 45.9929L2.85604 46.3396L2.94615 46.6853L3.0398 47.03L3.13694 47.3737L3.2376 47.7166L3.3417 48.0584L3.44929 48.3991L3.5603 48.7388L3.67475 49.0774L3.79259 49.4147L3.9138 49.7511L4.03837 50.0861L4.16627 50.4201L4.29749 50.7527L4.43199 51.0841L4.56742 51.4086L4.7083 51.7374L4.85235 52.0646L4.99959 52.3905L5.14999 52.715L5.30357 53.0376L5.46032 53.3589L5.62027 53.6786L5.78336 53.9966L5.94964 54.3129L6.11908 54.6274L6.29165 54.9404L6.46736 55.2516L6.64622 55.5607L6.82818 55.8683L7.01325 56.1737L7.20142 56.4776L7.39267 56.7792L7.58697 57.0791L7.78434 57.3769L7.98468 57.6726L8.18806 57.9663L8.39441 58.2581L8.60371 58.5476L8.81595 58.835L9.03112 59.1203L9.24915 59.4033L9.47005 59.6843L9.69378 59.963L9.92029 60.2394L10.1496 60.5136L10.3816 60.7855L10.6164 61.0552L10.8538 61.3225L11.0939 61.5875L11.3366 61.8502L11.5818 62.1106L11.8297 62.3686L12.0813 62.6254L12.2246 62.7696L12.4788 63.0213L12.7353 63.2705L12.9942 63.5174L13.2554 63.7615L13.519 64.0032L13.7849 64.2421L14.0531 64.4785L14.3237 64.712L14.5965 64.943L14.8716 65.1713L15.1489 65.3967L15.4285 65.6192L15.7102 65.8388L15.9942 66.0557L16.2803 66.2699L16.5686 66.4808L16.859 66.689L17.1514 66.8942L17.446 67.0962L17.7426 67.2955L18.0412 67.4915L18.3417 67.6846L18.6443 67.8747L18.9487 68.0617L19.2551 68.2454L19.5633 68.4262L19.8734 68.6038L20.1852 68.7783L20.4988 68.9495L20.8141 69.1176L21.1312 69.2827L21.4498 69.4447L21.7702 69.6032L22.0921 69.7588L22.4155 69.911L22.7405 70.0603L23.067 70.2061L23.3966 70.3496L23.5835 70.4294L23.9135 70.5671L24.2448 70.7016L24.5774 70.8328L24.9112 70.9606L25.2462 71.0852L25.5824 71.2065L25.9198 71.3244L26.2584 71.4389L26.598 71.5498L26.9387 71.6574L27.2805 71.7616L27.6233 71.8622L27.9671 71.9594L28.3118 72.0531L28.6575 72.1432L29.004 72.2299L29.3515 72.3129L29.6997 72.3924L30.0487 72.4684L30.3986 72.5407L30.7491 72.6095L31.1003 72.6748L31.4522 72.7365L31.8047 72.7945L32.1578 72.8491L32.5115 72.8999L32.8657 72.9473L33.2203 72.991L33.5754 73.0312L33.931 73.0678L34.2868 73.1009L34.643 73.1305L34.9996 73.1563L35.3567 73.1789L35.7137 73.1977L36.0709 73.2132L36.4285 73.2253L36.7861 73.2339L37.1439 73.239L37.496 73.2406L37.8538 73.239L38.2114 73.2339L38.569 73.2253L38.9264 73.2134L39.2838 73.1979L39.6408 73.1791L39.9976 73.1567L40.3542 73.1307L40.7104 73.1011L41.0663 73.0682L41.4217 73.0315L41.7769 72.9914L42.1315 72.9477L42.4856 72.9003L42.8392 72.8495L43.1924 72.7951L43.5449 72.737L43.8968 72.6754L44.248 72.6101L44.5985 72.5415L44.9483 72.469L45.2974 72.3932L45.6457 72.3136L45.993 72.2307L46.3397 72.144L46.6854 72.0539L47.0301 71.9602L47.3738 71.8632L47.7167 71.7626L48.0584 71.6584L48.3992 71.5508L48.7389 71.4399L49.0775 71.3254L49.4148 71.2075L49.7512 71.0862L50.0862 70.9618L50.4202 70.8338L50.7528 70.7026L51.0842 70.5681L51.4087 70.4327L51.7375 70.2918L52.0647 70.1478L52.3906 70.0005L52.7151 69.8501L53.0377 69.6965L53.359 69.5397L53.6787 69.3798L53.9966 69.2168L54.313 69.0506L54.6275 68.8811L54.9405 68.7084L55.2516 68.5328L55.5608 68.354L55.8684 68.172L56.1738 67.9869L56.4777 67.7987L56.7793 67.6074L57.0792 67.4131L57.377 67.2159L57.6727 67.0154L57.9664 66.812L58.2582 66.6056L58.5477 66.3965L58.8351 66.1841L59.1204 65.969L59.4034 65.7509L59.6844 65.5301L59.963 65.3064L60.2395 65.0798L60.5137 64.8506L60.7856 64.6186L61.0553 64.3838L61.3226 64.1463L61.5875 63.9064L61.8503 63.6636L62.1107 63.4184L62.3687 63.1705L62.6254 62.9189L62.7695 62.7756L63.0213 62.5214L63.2706 62.2648L63.5175 62.006L63.7616 61.7446L64.0033 61.4811L64.2422 61.2152L64.4786 60.9471L64.7121 60.6764L64.9431 60.4037L65.1713 60.1285L65.3966 59.8512L65.6193 59.5716L65.8389 59.2898L66.0558 59.0058L66.2698 58.7197L66.4809 58.4315L66.6889 58.141L66.8941 57.8487L67.0963 57.554L67.2954 57.2575L67.4916 56.9588L67.6845 56.6584L67.8746 56.3557L68.0616 56.0513L68.2453 55.7449L68.4261 55.4367L68.6037 55.1267L68.7782 54.8148L68.9494 54.5012L69.1177 54.1859L69.2826 53.8688L69.4446 53.5502L69.6031 53.2297L69.7587 52.9079L69.9109 52.5844L70.0602 52.2595L70.206 51.9331L70.3497 51.6035L70.4293 51.4165L70.567 51.0865L70.7015 50.7553L70.8327 50.4227L70.9607 50.0889L71.0854 49.7537L71.2064 49.4175L71.3243 49.0802L71.4388 48.7416L71.5499 48.4021L71.6575 48.0613L71.7617 47.7196L71.8623 47.3767L71.9595 47.033L72.0532 46.6883L72.1433 46.3426L72.2298 45.9961L72.313 45.6486L72.3925 45.3003L72.4683 44.9512L72.5408 44.6016L72.6096 44.2509L72.6749 43.8999L72.7365 43.5478L72.7946 43.1954L72.8492 42.8423L72.9 42.4887L72.9474 42.1344L72.9911 41.7798L73.0311 41.4246L73.0679 41.0692L73.101 40.7132L73.1304 40.3569L73.1564 40.0003L73.179 39.6435L73.1978 39.2865L73.2133 38.9291L73.2254 38.5717L73.234 38.2141L73.2391 37.8563L73.2407 37.5042V37.4959L73.2391 37.1464Z" fill="black"/>
</svg>
